<?xml version="1.0" encoding="utf-8"?>
<!-- Generator: Adobe Illustrator 23.1.0, SVG Export Plug-In . SVG Version: 6.00 Build 0)  -->
<svg version="1.1" id="Слой_1" xmlns="http://www.w3.org/2000/svg" xmlns:xlink="http://www.w3.org/1999/xlink" x="0px" y="0px"
	 viewBox="0 0 200 200" style="enable-background:new 0 0 200 200;" xml:space="preserve">
<style type="text/css">
	.st0{fill:none;stroke:#000000;stroke-miterlimit:10;}
	.st1{fill:none;}
	.st2{fill:#4ECC72;}
	.st3{fill:#FFFFE3;}
	.st4{fill:#F4F3DC;}
	.st5{fill:#FD5E53;}
	.st6{fill:#FEFEAE;}
</style>
<g>
	<g>
		<path d="M71.9,75.1C64.7,78,59.7,84,56.4,90.9c-4.6,9.5-6.4,20.5-4.2,30.9c4.3,20.3,23,35.5,43.2,38.2c6.5,0.9,12.5-0.5,18.5-3
			c5.3-2.2,10.3-4.7,14.9-8.3c7.8-6.2,13.1-15.1,16.4-24.4c1.4-4,2.5-8.2,2.9-12.4c0.6-5.9-0.7-11.6-2.7-17.2
			c-1.4-3.9-2.9-7.9-5.4-11.3c-2.7-3.6-6.2-6.4-10.1-8.5c-6.1-3.4-13.3-5.9-20.3-6.9c-5.8-0.9-11.7-0.5-17.2,1.8
			c-1.9,0.8-3.8,1.7-5.8,2.4c-2.6,0.8-5.3,1.3-8,1.6C76.3,73.9,74.1,74.2,71.9,75.1c-1.8,0.7-1,3.6,0.8,2.9
			c4.5-1.7,9.4-1.5,14.1-2.8c2-0.6,3.9-1.4,5.8-2.3c2.3-1,4.7-1.8,7.2-2.1c7.7-1.2,15.8,1.1,23,3.9c7.5,3,14.2,7.7,17.6,15.2
			c1.7,3.8,3.1,7.8,4.1,11.8c1.2,5.4,0.9,10.8-0.5,16.2c-2.2,8.6-6,17.1-12,23.7c-3.1,3.5-6.9,6.4-10.9,8.7c-4.7,2.7-10,5-15.3,6.2
			c-5.5,1.3-11.2,0.5-16.5-1c-4.5-1.3-8.8-3.1-12.7-5.6c-7.9-4.9-14.5-11.9-18.4-20.3c-4.5-9.7-4.7-20.7-1.5-30.8
			c2.3-7.4,6.3-14.8,13-19.1c0.8-0.5,1.6-0.9,2.4-1.4c0.3-0.1,0.6-0.3,0.8-0.4c0.4-0.2,0,0,0,0C74.4,77.3,73.7,74.4,71.9,75.1z"/>
	</g>
</g>
<g>
	<g>
		<path d="M74.5,78.5c3.1,0.2,5.8,1.1,8.7,2.3c3.2,1.4,6.8,1.9,10.3,1.8c7-0.1,13.9-2.4,20.4-4.8c1.8-0.7,1-3.6-0.8-2.9
			c-6.4,2.4-13.2,4.7-20.1,4.7c-3.3,0-6.5-0.5-9.4-1.9c-2.9-1.4-5.9-2.1-9.1-2.2C72.6,75.4,72.6,78.4,74.5,78.5L74.5,78.5z"/>
	</g>
</g>
<g>
	<g>
		<path d="M82,105.3c4.3,0.8,6-4.5,9.6-5.6c4.6-1.4,10.1,3.8,10.2,8.3c0.1,3.7-3.1,5.5-5.2,8.1c-2.6,3.3-5.5,6.2-8.5,9.1
			c-2.1,2-4.2,4.2-6.7,5.6c-0.4,0.2-0.8,0.4-1.2,0.8c-0.1,0.1-0.2,0.2-0.2,0.3c0,0-0.1,0.1-0.1,0.1c-0.2,0.2-0.2,0.2,0.1,0.2
			c-0.1-0.3,1,0.8,0.1-0.1c-0.4-0.4-0.9-0.8-1.3-1.2c-1.6-1.2-3-2.4-4.4-3.8c-0.8-0.9-1.6-1.7-2.4-2.7c-0.5-0.6-0.4-0.4-0.8-1
			c-0.8-1.1-1.5-2.2-2.3-3.3c-1.7-2.4-3.6-4.7-5.2-7.1c-1.7-2.7-3.5-6.7-1-9.5c1.5-1.7,3.8-2.8,6-3.5c2.5-0.8,5.5-1.3,7.9-0.1
			C79.2,101,79.2,104.5,82,105.3c1.8,0.6,2.6-2.3,0.8-2.9c-0.8-0.3-1.2-1.8-1.6-2.5c-0.8-1.2-1.9-2.3-3.3-2.9
			c-2.6-1.2-5.5-1.2-8.2-0.6c-4.8,1.1-11,4.2-11.2,9.8c-0.2,3.5,1.8,7,3.8,9.8c1.7,2.3,3.5,4.6,5.1,7c2.1,3.1,4.5,6,7.4,8.4
			c0.7,0.6,1.5,1.2,2.2,1.8c0.3,0.2,0.2,0.1,0.5,0.4c0.1,0.1,0.2,0.2,0.3,0.3c0.3,0.3-0.1-0.1,0.2,0.2c0.9,1.1,2.2,1.4,3.4,0.6
			c0.4-0.3,0.7-0.7,1.1-1c-0.3,0.3,0,0,0.2-0.1s0.5-0.3,0.7-0.4c1.2-0.7,2.3-1.6,3.3-2.5c4-3.5,8-7.3,11.3-11.4
			c1.9-2.3,4.5-4.2,5.8-6.9c2.5-5.4-0.6-11.3-5.4-14.1c-2.7-1.6-5.9-2.1-8.8-0.8c-2.2,1-3.6,2.9-5.4,4.4c-0.4,0.4-1,0.8-1.5,0.8
			C80.9,102.1,80.2,105,82,105.3z"/>
	</g>
</g>
<g>
	<g>
		<path d="M95.1,80.4c0.4-1.9,0.8-3.9,0.5-5.9c-0.2-2-1.1-3.7-2.2-5.2c-1.1-1.5-2.3-3-3.6-4.4c-0.6-0.7-1.3-1.4-2-2
			c-0.3-0.3-0.7-0.6-1.1-0.9c-0.2-0.2-0.4-0.3-0.6-0.5c-0.3-0.2-0.4-0.2-0.2-0.2c0.1,0.3,0.1,0.5,0.2,0.8c0-0.1,0-0.2,0-0.3
			C86.1,62,86,62.2,86,62.5c0.6-0.9,2.6-1.1,3.6-1.2c-0.5-0.6-1-1.3-1.4-1.9c-0.9,3,0.6,6.2,1.6,9c1.1,2.9,2.2,5.8,2.5,8.9
			c0.2,1.9,3,2,3,0c0-3.1-0.3-6-1.5-8.8c-1.2-2.9-2.7-5.7-4.3-8.4c-0.6-1-2.5-1-2.7,0.4c-0.1,0.4-0.1,0.8-0.2,1.2
			c-0.3,1.9,2.6,2.7,2.9,0.8c0.1-0.4,0.1-0.8,0.2-1.2c-0.9,0.1-1.8,0.2-2.7,0.4c1.4,2.5,2.8,5.1,4,7.7c1.2,2.6,1.4,5.2,1.4,8
			c1,0,2,0,3,0c-0.3-3-1.2-5.8-2.3-8.6c-0.5-1.4-1-2.7-1.5-4.1c-0.5-1.4-0.9-2.8-0.5-4.3c0.3-0.8-0.5-2-1.4-1.9
			c-2,0.3-5.1,0.6-6.1,2.7c-0.6,1.3,0.1,2.2,1.1,3c1,0.8,1.9,1.6,2.7,2.5c1.6,1.7,3.3,3.6,4.5,5.7c1.4,2.4,1,5,0.5,7.5
			C91.8,81.5,94.7,82.3,95.1,80.4L95.1,80.4z"/>
	</g>
</g>
<g>
	<g>
		<path d="M94.8,68.2c2.4-4.3,7-6.5,11.6-8c4.4-1.4,8.8-2.5,13.3-3.3c2.5-0.5,5-0.7,7.5-0.7c4.2,0.1,8.8,1,12.2,3.7
			c2.6,2.1,4.5,4.8,5.9,7.8c0.8,1.6,3.1,0.4,2.7-1.2c-0.8-4-2.8-8-5.2-11.3c-5-6.8-12.9-10.8-21.4-10.1c-3.8,0.3-7.4,1.4-10.9,3
			c-4,1.9-7.9,4.7-9.9,8.7c-1,2-1.7,4.4-1.3,6.7c0.4,2.7,2.6,3.5,5.1,3.8c5.4,0.7,10.7-0.9,15.9-2.3c2.8-0.8,5.6-1.5,8.3-2.1
			c1.9-0.4,3.8-0.9,5.8-0.9c4.5,0,8.3,2.8,11.1,6.1c1.3,1.5,3.4-0.7,2.1-2.1c-2.6-2.9-5.8-5.3-9.5-6.4c-3.1-0.9-6.3-0.4-9.4,0.3
			c-4.6,1-9.2,2.4-13.8,3.6c-2.5,0.6-5,1.1-7.6,1.2c-1.2,0-2.3-0.1-3.5-0.3c-0.4-0.1-1.1-0.1-1.4-0.5c-0.3-0.4-0.3-1.1-0.2-1.6
			c0.3-7.9,9.7-12.3,16.4-13.6c7.9-1.6,15.8,1.1,20.9,7.3c2.7,3.2,4.7,7.4,5.6,11.5c0.9-0.4,1.8-0.8,2.7-1.2
			c-1.3-2.8-3.2-5.5-5.4-7.6c-3.7-3.4-8.4-4.8-13.3-5.3c-3-0.3-5.9,0-8.9,0.4c-4.7,0.8-9.4,2-14,3.3c-5.5,1.7-11.1,4.3-14,9.6
			C91.2,68.4,93.8,69.9,94.8,68.2z"/>
	</g>
</g>
<path class="st0" d="M86.5,78"/>
<path class="st0" d="M53.5,57"/>
<path class="st0" d="M241.5,102.5"/>
<path class="st0" d="M260.5,98.5"/>
<g>
	<g>
		<path d="M38.2,55.7c-1.8,1.4-3.1,2.5-4.1,3.2c-0.9,0.6-1.6,0.8-2.3,0.6c-1.1-0.4-3.1-2.1-6.1-5.2c-1.5-1.5-3.5-3.5-5.9-5.8
			c-0.1,0.1-0.1,0.2-0.3,0.3c-0.5,0.5-1.2,0.7-1.9,0.5C17,49.3,16.5,49,16,48.6c-0.5-0.5-0.8-1.2-0.8-2c0-0.2,0.1-1,0.3-2.5
			c0.4-3.4,1.4-6.3,2.7-8.8c1.6-2.8,3.9-5.5,7-7.7c3.6-2.6,7-3.8,10-4c3.3-0.1,5.6,1.1,7,3.6c1.4,2.5,0.3,5.9-2.7,10.4
			c2.2-0.8,4.3-1.2,6.4-1c2.5,0.1,4.1,1,4.8,2.3c1.1,2.1-0.3,5-3.7,8.8C45,50.1,42,52.6,38.2,55.7z M38.3,30c-0.8-1.2-2.4-1.6-4.9-1
			c-2.2,0.5-4.3,1.4-6.1,2.8c-3.1,2.2-5.3,5.7-6.4,10.2c0.9,1.1,1.8,2.2,2.7,3.3c0.5,0.5,0.7,0.8,1.1,1.3c0.4,0.4,0.8,0.9,1.2,1.3
			c6.6-6.1,10.9-10,12.1-13.1C38.7,32.6,38.9,31.1,38.3,30z M35,44.5c-2.6,1.9-4.4,4.3-5.4,7.1c1.1,1,2.7,2.8,3.2,2.8
			c1.2,0,4.8-3.6,6.7-4.9s3.4-2.6,4.7-3.7c2.4-2.1,3.3-3.5,2.7-4.6c-0.6-1-2.5-1.1-5.7,0.1C38.8,42.1,36.7,43.3,35,44.5z"/>
		<path d="M83.2,21.9c0.5,2.8,1.3,5.6,2.3,8.4c0.2,0,0.2,0,0.4,0c2.5-0.4,5.4-0.9,8.6-1.6c1.5-0.3,4.3-1.1,8.7-1.8
			c0.6-0.1,1.1-0.1,1.4-0.1c1.1,0,1.6,0.5,1.6,1.3c0,0.5-0.3,1.1-0.8,1.7s-1,1-1.5,1.2c-2.4,1-5.3,1.8-8.7,2.6
			c-3.1,0.7-6,1.3-8.8,1.7c-1.2,0.2-2,0.3-2.3,0.3c-1.4,0.1-2.4-1-3.1-3c-0.4-1.1-0.7-2.6-1.1-4.4c-0.3-1.5-0.6-3-0.9-4.5
			c-1.3-0.1-2-0.7-2.3-1.9c-0.2-1,0.2-1.8,1.2-2.4c-0.1-0.1-0.1-0.5-0.3-1.1c-0.2-1-0.3-1.5-0.5-2.6c-0.2-0.9-0.4-1.8-0.6-2.7
			c-0.2-0.7-0.2-1.1-0.4-1.8c-0.2-1.1-0.2-1.9,0.2-2.4c0.4-0.4,1.3-1,2.9-1.6c2.4-1,3.6-1.5,6.1-2.3c2.1-0.7,4.4-1.2,7-1.3
			c3.3-0.2,5.5-0.2,6.7,0c0.9,0.1,1.8,0.5,2.6,1.2c0.9,0.8,1.3,1.4,1.3,1.9c0,0.8-1.1,1.2-3.1,1.3c-4.7,0.2-7.8,0.7-9.3,1
			c-2.3,0.5-5.2,1.5-8.7,3.2c0.2,2.1,0.3,3.8,0.5,5.1c6.8-2.6,13.9-3.9,20.8-3.7c1.2,0,2.3,0.2,3.5,0.6c1.6,0.5,2.4,1.3,2.3,2.1
			c-0.1,0.6-1.1,1-3.2,1C96.1,17.6,88.5,19.5,83.2,21.9z"/>
		<path d="M110.8,32.3c-0.5-1.6-0.8-2.8-0.7-3.6c0.1-1.3,1.4-2.1,4-2.2c1.9-0.1,3.4-0.7,4.6-1.8c2.7-2.1,6.7-6.5,12.9-12.5
			c1.3-1.2,2-1.9,3.3-3.1c1.3-0.9,2.5-1.2,3.7-0.9c2.2,0.6,3.5,1.6,3.6,3.1c0.3,7.1,0.4,12.2,0.7,15.5c0.3,3.3,0.4,5.2,0.5,5.9
			c1.6,0.6,2.5,1,2.6,1c0.7,0.3,1.1,0.5,1.8,0.8c1.7,1,2.4,1.9,2,2.6c-0.4,0.7-0.7,1.2-0.9,1.5c-1.8,1.5-3.9,3.1-6.4,5
			c-0.4,0.1-1.1,0-2.1-0.2c-0.3-0.2-0.8-0.2-1.2-0.3c-0.9-0.3-1.4-0.9-1.4-1.3c0.1-0.5,0.9-1.3,2.4-2.3c1-0.6,1.7-1.1,2-1.5
			c0.1-0.2,0.2-0.4,0.1-0.5c-0.1-0.2-0.3-0.3-0.7-0.4c-1.9-0.7-4.3-1.7-7.1-2.5c-2.8-0.8-5.8-1.4-8.7-2c-3-0.6-5.9-1.1-8.6-1.3
			c-0.7,0-1.1,0.1-1.2,0.3c-0.1,0.2-0.1,0.5,0,1.1c0,0.1,0.2,0.6,0.4,1.5c0.2,0.7,0.3,1.1,0.2,1.4c-0.1,0.8-0.9,1.3-2.4,1.5
			c-0.8,0.1-1.4,0.1-1.8,0c-0.8-0.3-1.3-1.1-1.4-2.5C111.1,33.9,111,33.2,110.8,32.3z M123.2,27c2.7,0.5,6,1.3,9.8,2.3
			c1.3,0.3,2.9,0.7,4.7,1.1c0.1-5-0.2-10.3-1.1-15.8C133.4,17.2,128.7,21.2,123.2,27z"/>
		<path d="M158.4,36.8c-1.4,2.5-2.6,5.1-3.7,7.9c0.1,0.1,0.2,0.1,0.3,0.2c2.2,1.4,4.9,2.9,7.9,4.5c1.4,0.8,4.2,2.1,8.2,4.6
			c0.5,0.3,0.9,0.6,1.2,0.9c0.9,0.8,1,1.5,0.4,2.1c-0.4,0.4-0.9,0.6-1.7,0.8s-1.4,0.1-2-0.1c-2.6-0.9-5.4-2.3-8.7-4
			c-2.9-1.5-5.6-3-8.1-4.6c-1.1-0.7-1.7-1.1-2-1.3c-1.1-0.9-1.3-2.3-0.5-4.3c0.4-1.1,1.1-2.5,2-4.1c0.7-1.3,1.4-2.7,2.2-4
			c-0.9-0.9-1.1-1.8-0.6-2.9c0.5-0.9,1.3-1.3,2.5-1c0-0.1,0.2-0.5,0.5-1c0.5-0.9,0.7-1.4,1.2-2.3c0.4-0.9,0.9-1.7,1.3-2.5
			c0.3-0.6,0.5-1,0.8-1.6c0.6-1,1.1-1.6,1.7-1.7c0.6-0.1,1.7,0.1,3.3,0.7c2.5,0.8,3.8,1.3,6.3,2.3c2.1,0.8,4.3,2,6.4,3.7
			c2.8,2.1,4.6,3.7,5.4,4.5c0.6,0.7,1.1,1.6,1.3,2.7c0.2,1.2,0.2,2-0.2,2.4c-0.6,0.6-1.7,0.2-3.4-1.1c-3.9-3.1-6.7-4.8-8.1-5.6
			c-2.1-1.2-5.1-2.4-8.9-3.4c-1.2,1.7-2.2,3.1-2.9,4.3c7.1,2.5,13.6,6.3,19,11.2c0.9,0.8,1.8,1.8,2.5,2.9c1,1.5,1.1,2.6,0.6,3.2
			c-0.5,0.5-1.5,0-3.3-1.5C171.4,42.1,164.1,38.6,158.4,36.8z"/>
	</g>
</g>
<g>
	<g>
		<path d="M25.4,172.6c-0.3,0.5-0.9,0.6-1.8,0.5s-1.8-0.5-2.6-1.1c-1.2-0.8-1.4-1.9-0.4-3.2c0.2-0.3,0.5-0.7,0.8-1.3s0.6-1,0.9-1.3
			c0.4-0.5,0.5-0.8,0.9-1.3c0.1-0.2,1.4-2.2,3.7-6.1c-5.6-3.1-10.7-5.9-15.4-8.3c-1.8,2.3-3.2,4.2-4.1,5.7c-0.1,0.1-0.1,0.2-0.2,0.4
			c-0.1,0.1-0.2,0.3-0.4,0.7c-0.2,0.4-0.3,0.7-0.3,0.7c-0.6,1.1-1,1.6-1,1.7c-0.3,0.4-1,0.3-2-0.2c-0.9-0.4-1.7-0.9-2.3-1.5
			c-0.9-0.8-1-1.8-0.4-2.6c0.4-0.5,1.2-1.3,2-2.3c1.4-1.7,3.5-4.6,6.4-8.1c2.5-3.1,4.8-5.6,6.8-7.6c0.4-0.4,0.6-0.6,1-1
			c0.5-0.5,1.2-0.6,2.2-0.2c0.9,0.3,1.7,0.7,2.3,1.3c0.9,0.8,1,1.5,0.5,2.1c-0.1,0.1-0.3,0.3-0.5,0.5c-0.3,0.3-0.4,0.4-0.7,0.7
			c-2.4,2.2-4.5,4.3-6.2,6.1c5.1,2.8,9.9,5.5,14.6,8.5c1.7-2.5,2.6-3.8,4.3-6.3c0.7-0.8,1.4-1.2,2-1.2c1,0,2,0.4,3,1.1
			c0.9,0.6,1.1,1.1,0.8,1.7c-0.2,0.3-1,1.4-2.5,3.3c-0.7,0.9-1.1,1.4-1.9,2.3c-0.6,0.8-1.1,1.4-1.5,2c0.5,0.5,1,1.1,1.4,1.9
			c0.5,0.9,0.5,1.5,0.3,2c-0.4,0.7-1.6,0.4-3.6-0.9c-0.2,0.3-0.3,0.5-0.5,0.9c-2,3.2-3.4,5.6-4,7.5c-0.1,0.4-0.3,0.8-0.5,1.5
			c-0.2,0.4-0.3,0.6-0.4,1C25.6,172.2,25.5,172.5,25.4,172.6z"/>
		<path d="M41.3,170.1c-1.2,2.6-2.1,5.3-2.9,8.2c0.2,0.1,0.2,0.1,0.4,0.2c2.7,1.3,5.9,2.5,9.5,3.4c1.7,0.4,5,1.1,9.8,1.7
			c0.7,0.1,1.2,0.2,1.5,0.3c1.2,0.4,1.6,0.9,1.4,1.7c-0.2,0.5-0.5,1-1.2,1.4s-1.3,0.7-2,0.7c-3,0.2-6.6-0.1-10.8-1.1
			c-3.8-0.9-7.3-2.2-10.6-3.8c-1.4-0.7-2.2-1.1-2.6-1.4c-1.5-0.9-1.8-2.5-1.1-4.5c0.4-1.1,1.1-2.5,1.9-4.1c0.7-1.3,1.4-2.7,2.2-4
			c-0.9-0.9-1.1-1.9-0.5-2.9c0.5-0.9,1.3-1.2,2.4-1c0-0.1,0.2-0.5,0.5-1c0.5-0.9,0.7-1.4,1.2-2.3c0.4-0.9,0.9-1.7,1.3-2.4
			c0.3-0.6,0.5-0.9,0.8-1.6c0.6-1,1.1-1.6,1.5-1.7c0.5-0.1,1.4-0.1,2.7,0.2c2,0.4,3,0.6,5.1,0.9c1.7,0.3,3.4,0.8,5.2,1.5
			c2.3,0.9,3.9,1.6,4.6,2c0.6,0.4,1.1,1,1.5,1.8c0.4,0.9,0.6,1.7,0.4,2.2c-0.3,0.8-1.2,1-2.8,0.5c-3.7-1.1-6.2-1.9-7.4-2.2
			c-1.9-0.5-4.5-0.8-7.8-1.2c-1,1.8-1.9,3.3-2.5,4.5c6.7,1.6,12.8,3.2,18.6,5.1c1,0.3,2,0.8,2.9,1.4c1.3,0.8,1.9,1.7,1.6,2.5
			c-0.2,0.6-1.2,0.8-3.2,0.4C54.3,173.3,47,171.3,41.3,170.1z"/>
		<path d="M101.4,184c0.2,2.8,0.5,5.7,1.2,8.6c0.2,0,0.3,0,0.4,0c2.9-0.1,6.2-0.5,9.9-1.4c1.7-0.4,4.9-1.3,9.4-2.9
			c0.6-0.2,1.1-0.4,1.5-0.4c1.2-0.2,1.8,0.1,2,0.9c0.1,0.5,0,1.1-0.4,1.8s-0.9,1.2-1.4,1.6c-2.5,1.5-5.9,2.9-10,3.9
			c-3.7,0.9-7.4,1.4-10.9,1.5c-1.5,0-2.5,0-2.9,0c-1.7-0.2-2.7-1.4-2.9-3.5c-0.2-1.2-0.2-2.7-0.2-4.6c0-1.5,0-3.1,0.1-4.6
			c-1.2-0.4-1.8-1.1-1.7-2.3c0-1,0.6-1.7,1.7-2c0-0.1,0-0.5,0-1.2c0-1,0-1.6,0-2.6c0-1,0-1.9,0-2.8c0-0.7,0-1.1,0-1.8
			c0-1.2,0.2-1.9,0.6-2.3s1.2-0.7,2.4-1.1c1.9-0.6,2.9-0.9,4.8-1.5c1.6-0.5,3.3-0.9,5.2-1c2.5-0.2,4.1-0.4,5-0.3
			c0.7,0.1,1.4,0.4,2.1,0.9c0.8,0.6,1.3,1.2,1.3,1.8c0.1,0.8-0.6,1.4-2.2,1.7c-3.7,0.7-6.3,1.1-7.5,1.4c-1.9,0.4-4.3,1.3-7.3,2.4
			c-0.1,2.1-0.2,3.8-0.2,5.1c6.6-1.6,12.7-3,18.6-3.9c1-0.2,2.1-0.2,3.2-0.1c1.5,0.1,2.4,0.6,2.6,1.5c0.1,0.6-0.7,1.3-2.6,1.8
			C114.2,180.9,107,182.4,101.4,184z"/>
		<path d="M145.1,190.1c-2.5,0.8-4.5,1.4-5.9,1.6c-1.3,0.2-2.1,0.1-2.6-0.4c-0.9-0.8-1.8-3.4-3-7.5c-0.6-2.1-1.4-4.7-2.3-7.9
			c-0.1,0-0.2,0.1-0.3,0.1c-0.6,0.2-1.2-0.1-1.7-0.6c-0.4-0.4-0.7-0.9-0.8-1.5c-0.2-0.7-0.1-1.4,0.2-2.1c0.1-0.2,0.4-0.8,1.1-1.9
			c1.5-2.6,2.9-4.6,4.5-6.2c1.8-1.8,3.9-3.1,6.5-4.1c3-1.1,5.7-1.5,8.1-1.1c2.7,0.5,4.7,1.9,6,4.5c1.3,2.6,0.4,5.9-3.1,9.8
			c2.2-0.4,4.3-0.5,6.4-0.3c2.5,0.3,4.2,1,4.9,2.4c1.1,2.1-0.5,5.3-5.3,8.9C154.9,186.1,150.6,188.3,145.1,190.1z M151.3,165.1
			c-0.6-1.3-2-1.9-4.2-2c-1.9,0-3.6,0.3-5.3,0.9c-2.8,1.1-5.1,3.2-7.4,6.7c0.3,1.4,0.7,2.7,1.1,4.1c0.2,0.7,0.3,1,0.5,1.6
			c0.2,0.6,0.3,1.1,0.5,1.7c8-2.5,12.6-5.8,14.1-8.5C151.6,167.7,151.8,166.2,151.3,165.1z M146,178.4c-3,1.1-5.5,2.7-7.6,4.8
			c0.6,1.3,1.4,3.6,1.8,3.8c1.2,0.6,6.4-1.8,8.8-2.6c2.4-0.9,4.4-1.9,6.1-2.9c3-1.8,4.2-3.3,3.7-4.4c-0.5-1.1-2.5-1.2-5.9-0.5
			C150.3,177.1,148,177.7,146,178.4z"/>
		<path d="M199.2,152.2c0.4,0.4,0.5,1.2,0.2,2.2s-0.8,1.9-1.6,2.6c-0.6,0.6-1.7,0.8-3,0.4c-0.7-0.3-2.3-0.5-4.5-0.9
			c-3.8,4.1-13.6,10.4-15.6,14.6c-0.8,1.8-0.2,5.6-1,6.1c-0.8,0.5-1.8,0.6-2.9,0.4s-1.9-0.7-2.2-1.3c-0.1-0.3-0.1-1,0.2-2.3
			c0.1-0.6,0.3-1.6,0.5-2.8c0.6-4.4,0.5-11.2-1.2-20.1c-0.2-1.3-0.5-2.6-0.9-4.1c-0.3-1.3,0.2-2.4,1.4-3.3c0.7-0.5,1.7-0.6,2.8,0
			c0.8,0.4,2,1.2,3.6,2c6.6,3.3,13,5.2,19,5.9c1,0.1,2.4,0.2,4.3,0.4C198.8,152,199.1,152.1,199.2,152.2z M185.4,154.9
			c-3.7-1.4-8.1-3.4-13.2-6c0.4,2.7,0.9,5.8,1.5,9.3c0.4,2.9,0.6,4.4,0.9,7.4C178.9,162.2,182.5,158.6,185.4,154.9z"/>
	</g>
</g>
<path class="st1" d="M69.1,53.3c-1.5-2.5-1.6-5.8-0.3-8.5"/>
<path class="st2" d="M140.2,56.9c-0.1,0.2-1.1-0.7-3.5-1.7c-0.6-0.3-1.6-0.6-2.8-1c-1.9-0.5-3.3-0.7-4.5-0.8
	c-3.2-0.3-5.6-0.1-7.2,0.1c-1.4,0.1-2.5,0.3-3.6,0.5c-3,0.5-5.2,1.1-8.2,1.9c-1.9,0.5-2.8,0.7-3.8,1.1c-2.5,0.8-3.4,1.4-3.5,1.2
	c-0.4-0.5,2.2-3.5,5.3-5.5c1.5-1,2.9-1.6,4.5-2.3c1.9-0.8,2.8-1.1,3.3-1.2c0,0,0.1,0,0.2,0c0.8-0.1,1.2-0.3,1.7-0.4
	c0.4-0.1,0.7-0.1,1.2-0.2c0.7-0.1,1.3-0.2,1.7-0.2c0.4,0,0.7,0,0.9-0.1c0,0,0.6,0,1.2,0c2.3,0,4.5,0.6,4.5,0.6
	c3.3,0.8,5.7,2.2,6.6,2.8C138,53.7,140.5,56.6,140.2,56.9z"/>
<path class="st3" d="M192.9,77.1"/>
<path class="st4" d="M130.9,100.6"/>
<path class="st5" d="M142,94.8c0.9,2.9,2,7.7,1.5,13.7c-0.5,5.2-2,8.9-3.1,11.7c-2.6,6.2-5.7,10.2-9.7,15.1c-2.5,3.1-5.1,6.4-9.3,10
	c-3.3,2.8-6.2,4.6-8.7,6.2c-3.6,2.2-5.7,3.6-8.9,4.7c-3.1,1.1-5.9,1.4-7.8,1.5c5.4,0,16.5-0.8,27-8.1c6.1-4.2,9.7-9.1,11.4-11.3
	c5-6.8,7-12.9,8.7-18.3c1.6-5.1,2.6-8.1,2.1-11.8c-0.4-2.7-1.3-4.1-1.2-7.3c0-0.8,0.1-2.3-0.7-4C143,95.9,142.4,95.2,142,94.8z"/>
<path class="st6" d="M64.6,101.1c-1.6,1.2-2.8,3.1-3.2,5c-0.4,2-0.1,4.1,0.7,6c0.5,1,1.1,2,1.8,2.9c1.7,2.5,3.4,4.9,5.4,7.2
	c2,2.2,4.3,4.2,6.6,6.1c0.4,0.3,1.8,1.3,3.4,2.9c0.3,0.3,0.6,0.6,0.8,0.8c-4.5-5.5-8.2-10.2-11-13.8c-0.6-0.8-2-2.6-2.8-5.3
	c-0.5-1.6-1.1-3.8-0.1-6.1c1.2-3,4.5-4.2,6.1-4.7c2.7-1,5.1-0.8,6.4-0.6c-0.3-0.5-0.9-1.2-1.8-1.8c-0.8-0.5-1.5-0.6-2.6-0.7
	c-0.4-0.1-1.5-0.2-2.8-0.1c-0.5,0-1.8,0.2-3.4,0.7C66.7,99.9,65.6,100.4,64.6,101.1z"/>
</svg>
